<?xml version="1.0" encoding="UTF-8"?>
<!DOCTYPE svg PUBLIC "-//W3C//DTD SVG 1.1//EN" "http://www.w3.org/Graphics/SVG/1.1/DTD/svg11.dtd">
<svg version="1.1" xmlns="http://www.w3.org/2000/svg" xmlns:xlink="http://www.w3.org/1999/xlink" x="0" y="0" width="1182" height="961" viewBox="0, 0, 1182, 961">
  <defs>
    <clipPath id="Clip_1">
      <path d="M-0,0.927 L1181.05,0.927 L1181.05,960.94 L-0,960.94 z"/>
    </clipPath>
    <clipPath id="Clip_2">
      <path d="M-0,0.927 L1181.05,0.927 L1181.05,960.94 L-0,960.94 z"/>
    </clipPath>
  </defs>
  <g id="Layer_1">
    <g clip-path="url(#Clip_1)">
      <path d="M719.39,856.289 C709.058,874.611 705.464,894.531 705.877,915.315 C705.929,917.908 705.794,919.06 702.662,919.054 C651.86,918.946 601.058,918.972 550.256,918.955 C549.789,918.955 549.323,918.778 548.353,918.582 C549.726,915.794 551.031,913.182 552.304,910.554 C564.404,885.565 568.881,859.098 567.207,831.548 C564.347,784.478 547.509,742.008 524.049,701.761 C523.138,700.199 522.4,698.537 521.581,696.922 C522.645,695.57 524.199,695.558 525.669,695.581 C550.173,695.96 570.085,685.149 588.21,669.972 C590.751,667.844 593.384,665.828 595.757,663.495 C596.785,662.483 597.88,661.297 599.635,661.863 C600.72,663.538 600.244,664.799 598.933,666.245 C591.888,674.009 585.068,681.951 575.54,686.97 C571.206,689.253 569.914,694.594 572.177,698.579 C574.35,702.405 579.09,703.813 583.474,701.667 C589.65,698.643 595.109,694.559 599.942,689.674 C601.43,688.17 602.707,686.458 604.859,683.926 C609.255,703.418 615.454,720.801 617.375,739.198 C619.463,759.19 611.377,775.134 597.742,788.886 C595.049,791.603 592.258,794.225 589.475,796.851 C583.226,802.747 583.828,808.623 591.234,812.904 C605.926,821.395 621.862,826.455 638.388,829.867 C655.404,833.381 672.626,834.709 689.969,834.61 C691.895,834.599 693.388,834.728 694.795,836.314 C701.197,843.536 709.145,848.644 717.933,852.434 C720.124,853.379 720.662,854.032 719.39,856.289 z M1064.83,782.862 C1078.7,780.81 1092.25,777.462 1105.43,772.749 C1132,763.251 1156.65,750.479 1176.8,730.202 C1183.31,723.652 1182.31,717.909 1174.06,713.732 C1163.94,708.605 1154.07,703.04 1146.04,694.85 C1133.53,682.099 1130.46,665.803 1129.66,648.933 C1128.47,623.837 1128.51,598.68 1125.59,573.675 C1122.45,546.644 1117.31,520.106 1105.9,495.169 C1104.59,492.31 1104.98,490.523 1106.93,488.17 C1114.38,479.177 1121.27,469.785 1124.86,458.454 C1129.19,444.787 1125.2,432.464 1113.74,423.992 C1107.79,419.585 1101.07,416.774 1093.96,414.81 C1076.9,410.093 1059.56,409.175 1042,410.829 C1036.49,411.348 1034.19,409.385 1033.12,403.986 C1032.61,401.375 1032.21,398.738 1031.58,396.155 C1027.23,378.249 1021.31,361.013 1009.36,346.54 C995.376,329.602 977.218,327.928 960.453,341.982 C952.611,348.555 946.224,356.471 940.486,364.886 C939.035,367.016 937.667,367.534 935.206,366.951 C917.86,362.842 900.297,360.081 882.531,358.501 C846.391,355.289 810.735,357.695 775.684,367.379 C750.686,374.286 727.308,384.84 704.641,399.636 C704.641,397.526 704.632,396.413 704.643,395.3 C704.887,369.565 702.112,344.159 696.788,318.978 C669.97,192.147 573.314,88.063 448.537,53 C403.374,40.308 357.171,39.401 310.901,46.293 C293.906,48.825 277.33,53.35 263.346,64.23 C261.798,65.434 260.278,65.205 258.637,65.092 C226.678,62.891 196.919,70.596 168.798,85.317 C138.341,101.262 112.732,123.319 89.409,148.334 C28.44,213.725 0.267,291.757 0.003,380.417 C-0.078,407.383 1.554,434.31 5.669,461.037 C12.188,503.378 24.893,543.502 47.641,580.11 C48.773,581.931 49.945,583.811 50.61,585.825 C65.059,629.619 95.195,658.518 136.779,676.442 C139.775,677.734 140.702,678.565 139.833,681.957 C129.803,721.11 120.91,760.525 114.254,800.401 C107.923,838.331 101.941,876.331 104.787,915.02 C105.049,918.593 103.806,919.079 100.728,919.043 C88.399,918.898 76.067,918.944 63.735,918.999 C57.421,919.028 53.663,922.351 53.73,927.626 C53.795,932.659 57.5,935.789 63.566,935.802 C76.897,935.832 90.23,935.923 103.558,935.735 C106.975,935.687 108.606,936.532 109.904,939.992 C116.056,956.401 127.037,962.574 144.258,959.999 C158.208,957.912 168.142,949.709 176.373,938.984 C178.021,936.835 179.553,935.733 182.453,935.736 C273.271,935.828 364.089,935.827 454.907,935.74 C457.78,935.737 459.429,936.717 461.031,938.942 C465.147,944.659 470.118,949.578 476.029,953.463 C497.493,967.568 518.406,961.54 528.217,938.18 C529.62,934.841 531.801,935.861 533.822,935.859 C590.812,935.8 647.802,935.833 704.793,935.754 C707.932,935.75 709.56,936.327 710.97,939.643 C717.893,955.921 730.135,962.709 747.202,959.818 C761.254,957.438 772.677,950.41 781.07,938.8 C782.561,936.737 783.966,935.734 786.681,935.739 C843.004,935.836 899.328,935.834 955.652,935.743 C958.33,935.738 959.766,936.639 961.272,938.752 C968.601,949.04 978.614,955.511 990.734,958.884 C1009.43,964.086 1024.13,957.164 1031.58,939.264 C1032.75,936.445 1034.17,935.744 1037,935.754 C1064.32,935.85 1091.65,935.817 1118.98,935.808 C1125.87,935.806 1129.52,932.792 1129.42,927.259 C1129.32,922.046 1125.58,919.008 1119.09,918.992 C1107.09,918.961 1095.09,918.983 1083.09,918.983 C1069.76,918.983 1056.43,918.996 1043.1,918.965 C1041.44,918.961 1039.45,919.723 1039.87,916.375 C1042.56,894.997 1039.3,874.232 1032.7,853.918 C1031.53,850.321 1032.17,848.647 1035.41,846.451 C1057.02,831.798 1066.24,811.45 1062.11,785.491 C1061.62,782.384 1063.4,783.074 1064.83,782.862" fill="#6E4100"/>
    </g>
    <path d="M814.598,118.052 C807.608,118.04 802.858,109.867 806.646,100.878 C814.066,83.266 821.592,65.698 829.072,48.111 C831.737,41.842 834.357,35.553 837.067,29.304 C840.014,22.507 846.189,19.718 852.51,22.239 C858.503,24.63 860.945,31.358 858.069,38.17 C847.919,62.204 837.702,86.21 827.488,110.216 C825.432,115.046 822.067,118.136 814.598,118.052" fill="#FF7164"/>
    <g clip-path="url(#Clip_2)">
      <path d="M893.763,177.043 C888.418,177.092 884.224,174.259 882.663,169.751 C880.926,164.735 882.296,159.769 886.784,156.483 C894.162,151.082 901.659,145.842 909.183,140.644 C918.483,134.219 927.786,127.792 937.24,121.598 C941.467,118.828 946.07,118.838 950.368,121.759 C954.215,124.374 955.391,128.22 954.874,132.667 C954.488,135.987 952.896,138.597 950.046,140.429 C933.395,151.126 917.405,162.783 901.221,174.156 C898.842,175.827 896.467,177.203 893.763,177.043" fill="#FF7164"/>
      <path d="M728.783,40.837 C728.782,50.331 728.853,59.826 728.758,69.319 C728.688,76.208 724.17,80.904 717.771,81.02 C711.172,81.139 706.674,76.773 706.259,69.874 C706.15,68.05 705.833,66.231 705.838,64.41 C705.876,47.095 705.119,29.772 706.265,12.467 C706.742,5.268 711.449,0.678 717.972,0.937 C724.493,1.197 728.771,6.096 728.781,13.354 C728.794,22.515 728.784,31.675 728.783,40.837" fill="#FF7164"/>
    </g>
    <path d="M519.831,574.992 C517.697,580.843 513.03,582.603 507.313,583.867 C483.185,589.2 461.272,599.113 443.545,616.865 C430.91,629.518 422.287,644.484 418.695,662.116 C418.168,664.701 417.064,665.578 414.531,666.016 C384.09,671.281 353.533,671.21 322.969,667.718 C285.084,663.39 248.429,654.33 213.731,638.1 C210.311,636.5 207.729,634.438 205.592,631.231 C191.644,610.295 171.637,597.438 148.412,589.006 C146.534,588.324 144.734,587.725 143.32,586.105 C121.681,561.315 107.241,532.85 99.653,500.868 C101.781,499.863 101.847,499.764 104.288,501.401 C109.569,504.943 115.167,507.831 121.066,510.197 C142.821,518.923 162.109,515.018 179.144,499.076 C185.785,492.861 191.416,486.013 194.682,477.35 C198.037,468.454 198.142,459.428 196.267,450.307 C193.149,435.137 187.472,421.141 175.057,411.145 C157.763,397.223 135.035,396.557 115.305,408.752 C107.708,413.447 101.21,419.299 95.887,426.481 C94.856,427.872 94.189,429.857 91.897,429.796 C92.209,399.454 97.079,369.98 107.489,341.352 C121.505,302.809 140.42,267.25 168.715,237.173 C203.502,200.194 246.257,177.809 295.833,167.882 C299.691,167.109 300.761,168.407 301.922,171.794 C318.658,220.614 342.781,265.175 377.663,303.635 C398.329,326.422 422.86,344.387 448.116,361.478 C484.661,386.208 522.37,408.899 563.485,425.398 C573.048,429.236 582.779,432.623 592.831,434.96 C595.606,435.605 596.794,436.607 596.586,439.872 C595.273,460.548 591.568,480.787 586.096,500.731 C585.713,502.13 585.067,503.458 584.543,504.819 C581.914,504.337 582.184,501.903 581.609,500.191 C578.341,490.468 573.814,481.663 566.64,474.015 C551.29,457.649 526.71,454.586 505.997,465.745 C490.881,473.888 480.413,486.311 474.182,502.228 C465.261,525.019 474.979,551.512 496.494,563.248 C502.627,566.594 508.838,569.817 515.69,571.575 C517.494,572.039 519.781,572.253 519.831,574.992" fill="#FEF8EA"/>
    <path d="M662.033,263.875 C673.266,290.68 680.649,318.504 684.792,347.273 C687.652,367.135 687.863,387.065 687.839,407.046 C687.836,410.343 686.939,412.615 684.338,414.698 C668.545,427.345 654.636,441.875 642.076,457.708 C640.633,459.526 639.541,460.622 637.47,458.328 C631.84,452.093 624.49,448.957 616.344,448.212 C611.447,447.764 613.198,444.718 612.926,442.214 C612.567,438.915 614.541,438.927 616.956,438.982 C623.528,439.132 626.492,436.928 626.899,431.857 C627.347,426.277 624.533,423.396 617.763,422.616 C592.269,419.679 568.754,410.439 545.972,399.338 C499.255,376.576 455.587,348.843 415.207,316.152 C386.494,292.907 364.774,263.702 346.698,231.7 C331.736,205.212 320.565,177.132 311.95,148 C310.399,142.755 307.097,139.62 303.037,140.2 C298.452,140.854 295.363,143.358 295.404,148.482 C295.429,151.703 292.912,151.477 290.866,151.883 C256.481,158.712 224.613,171.658 195.772,191.645 C159.852,216.54 132.879,249.264 112.599,287.754 C99.905,311.846 90.179,337.093 83.093,363.356 C82.318,366.228 81.389,367.057 78.383,366.563 C64.029,364.204 51.858,369.395 44.844,381.828 C35.245,398.843 32.327,417.302 37.099,436.283 C41.615,454.247 54.351,464.167 72.134,467.77 C75.455,468.443 76.884,469.711 77.286,473.058 C80.711,501.537 88.523,528.731 101.453,554.397 C101.568,554.626 101.383,555.005 101.287,555.674 C94.041,549.392 87.089,543.009 78.736,538.506 C73.281,535.566 67.648,533.145 61.37,532.684 C54.062,532.147 51.708,533.798 49.877,540.744 C49.464,542.312 49.396,543.985 48.036,545.607 C40.246,529.521 34.398,512.944 29.941,495.876 C22.474,467.282 18.62,438.162 17.599,408.647 C17.542,406.991 17.318,405.342 17.172,403.69 C17.323,401.419 17.205,399.145 17.245,396.872 C18.468,373.654 23.111,350.999 29.269,328.689 C45.016,271.641 70.291,219.428 109.154,174.321 C126.655,154.009 147.499,137.516 169.373,122.211 C190.613,107.349 212.903,94.56 237.647,86.382 C244.469,84.128 251.423,82.72 258.557,82.088 C262.172,82.523 265.796,82.889 269.398,83.409 C274.353,84.123 278.954,81.609 279.399,76.827 C279.72,73.377 281.613,72.358 284.036,71.257 C296.9,65.415 310.623,62.835 324.486,61.12 C346.836,58.356 369.267,58.552 391.707,60.123 C427.483,62.628 461.228,72.468 493.544,87.779 C532.793,106.375 567.327,131.4 597.028,163.063 C609.784,176.661 621.391,191.198 631.571,206.844 C629.931,225.17 622.633,240.698 608.608,252.807 C601.025,259.354 592.112,263.279 582.41,265.586 C577.486,266.757 577.946,266.872 579.709,271.491 C582.498,278.803 588.396,279.368 594.682,279.538 C609.446,279.937 623.829,277.637 637.898,273.228 C646.149,270.641 654.261,267.696 662.033,263.875" fill="#DBA76F"/>
    <path d="M1044.54,688.875 C1041.66,723.739 1030,755.083 1005.94,780.886 C1001.16,786.012 996.313,791.438 990.616,795.761 C966.036,814.41 938.642,826.871 908.453,833.359 C871.255,841.354 834.046,843.766 796.603,834.989 C791.449,833.78 788.02,831.826 785.418,826.683 C778.581,813.169 768.562,802.752 753.065,799.208 C751.023,798.742 750.55,797.347 749.787,795.93 C742.036,781.55 730.867,776.083 714.734,778.876 C713.255,779.132 712.321,779.078 711.378,777.72 C704.833,768.281 698.778,758.577 694.576,747.826 C696.339,746.579 697.713,747.876 699.166,748.549 C709.449,753.31 720.007,754.361 731.254,752.372 C748.768,749.276 767.081,719.529 755.743,700.501 C750.058,690.961 744.24,681.759 733.734,677.647 C717.145,671.155 701.863,675.788 690.599,690.839 C687.691,694.724 685.419,698.948 683.728,703.52 C683.154,705.072 683.306,707.336 680.888,707.727 C674.763,684.728 674.306,661.372 676.733,637.884 C679.632,609.84 686.72,583.019 700.671,558.277 C710.325,541.155 722.554,526.166 737.48,513.348 C739.546,511.573 740.613,511.04 743.025,513.189 C785.424,550.966 835.679,571.435 891.266,579.964 C933.758,586.484 976.169,585.051 1018.45,578.037 C1023.72,577.161 1026.11,578.201 1028.18,583.392 C1036.59,604.488 1043.8,625.81 1044.76,648.761 C1045.06,649.856 1045.7,651.309 1044.27,651.748 C1042.79,652.199 1042.01,650.609 1041.27,649.586 C1033.36,638.658 1022.06,634.885 1009.22,634.135 C988.758,632.94 975.511,646.432 970.238,665.245 C966.258,679.445 973.006,690.623 981.867,700.573 C998.751,719.533 1026.15,716.111 1040.13,693.686 C1041.27,691.864 1041.55,689.064 1044.54,688.875" fill="#FEF8EA"/>
    <path d="M1156.7,725.654 C1145.08,736.175 1131.46,743.499 1117.32,749.822 C1093.73,760.36 1069.2,767.313 1043.17,767.937 C1037.15,768.081 1037.13,768.017 1039.99,762.792 C1049.01,746.307 1055.16,728.801 1058.63,710.351 C1059.17,707.503 1059.99,705.904 1063.54,705.609 C1086.25,703.724 1098.7,689.911 1098.72,667.171 C1098.73,656.319 1096.93,645.913 1090.87,636.692 C1084.52,627.034 1075.25,623.376 1064.1,625.408 C1059.84,626.184 1058.79,625.155 1058,621.199 C1055.02,606.304 1049.94,592.024 1044,578.091 C1042.3,574.123 1043.42,573.112 1047.07,572.803 C1048.38,572.692 1049.68,572.293 1050.94,571.884 C1055.44,570.427 1057.74,566.703 1056.92,562.343 C1056.01,557.563 1052.55,554.883 1047.47,555.72 C1037.63,557.34 1027.86,559.367 1018.04,561.091 C984.941,566.901 951.636,568.537 918.103,566.078 C878.656,563.185 840.988,553.679 805.673,535.724 C781.304,523.335 759.062,507.955 741.061,487.02 C737.792,483.217 733.03,482.417 729.45,484.806 C725.702,487.306 724.344,491.971 727.081,496.207 C729.217,499.513 726.688,500.353 725.174,501.673 C706.591,517.871 691.979,537.115 681.174,559.221 C668.523,585.102 661.891,612.585 659.563,641.23 C658.495,654.373 658.209,667.495 659.244,680.628 C659.481,683.64 657.419,682.897 656.038,683.072 C648.733,683.995 642.189,686.478 636.974,691.883 C634.829,690.573 634.866,688.205 634.362,686.185 C625.892,652.273 620.441,617.956 622.402,582.887 C623.761,558.567 629.984,535.312 639.592,512.908 C649.026,490.91 662.737,471.812 678.24,453.794 C686.493,444.2 695.32,435.139 703.619,425.595 C707.784,420.805 712.667,416.765 717.624,412.829 C719.121,411.135 721.386,410.29 722.633,408.315 C753.469,389.728 786.955,379.467 822.674,375.598 C857.803,371.794 892.379,375.02 926.758,382.176 C927.54,382.338 928.256,382.816 929.118,383.198 C924.208,393.602 919.893,403.977 918.406,415.385 C915.246,439.628 929.38,456.611 953.817,457.908 C969.221,458.725 984.348,456.248 999.54,454.558 C1002.6,454.218 1003.38,454.707 1003.78,457.837 C1005.5,471.345 1006.8,484.961 1010.82,498.053 C1014.79,510.96 1021.35,522.007 1035.02,526.518 C1046.71,530.372 1057.68,527.049 1068.19,521.748 C1075.68,517.975 1082.36,512.996 1088.47,507.319 C1091.17,504.801 1092.18,505.178 1093.46,508.457 C1099.79,524.638 1103.93,541.383 1106.59,558.513 C1109.99,580.406 1111.23,602.46 1112,624.59 C1112.59,641.489 1112,658.539 1116.55,675.138 C1119.86,687.204 1125.69,697.821 1133.86,707.188 C1135.46,709.028 1137.64,710.361 1139.56,711.927 C1140.68,713.265 1141.58,714.802 1143.04,715.838 L1143.2,715.74 C1144.84,715.722 1145.19,718.194 1147.05,717.723 C1147.96,718.877 1149.12,719.647 1150.57,719.948 C1151.67,721.831 1153.49,722.724 1155.43,723.449 C1156.2,723.984 1156.9,724.564 1156.7,725.654" fill="#DCAE53"/>
    <path d="M448.258,918.779 C361.95,918.779 275.542,918.779 188.525,918.779 C201.824,888.244 207.901,856.159 212.335,823.708 C216.752,791.374 218.788,758.834 219.84,725.74 C231.95,729.406 243.884,732.775 256.013,735.393 C308.434,746.707 360.697,746.554 412.743,733.152 C416.754,732.119 417.802,732.451 417.999,737.027 C419.676,775.776 422.555,814.425 429.7,852.627 C433.742,874.234 438.913,895.526 447.693,915.79 C448.067,916.654 448.874,917.48 448.258,918.779" fill="#FEFC9F"/>
    <path d="M572.494,550.946 C575.483,567.883 571.771,583.621 563.824,598.188 C546.286,630.333 520.605,653.064 485.074,663.779 C479.033,665.601 477.032,669.375 478.837,676.226 C484.725,698.577 490.028,721.066 494.947,743.649 C503.876,784.641 511.648,825.839 515.338,867.671 C517.108,887.73 518.298,907.894 513.761,927.843 C513.541,928.812 513.264,929.769 512.989,930.724 C509.44,943.048 504.041,947.95 488.31,940.925 C478.116,936.372 472.394,927.061 467.35,917.545 C456.474,897.03 450.982,874.762 446.717,852.182 C438.82,810.37 435.704,768.078 434.456,725.601 C434.036,711.283 434.138,696.963 433.773,682.654 C433.085,655.66 445.108,635.349 466.142,619.696 C482.254,607.706 500.865,601.707 520.361,598.207 C524.561,597.453 527.108,595.436 529.26,591.907 C538.477,576.793 550.043,563.839 565.122,554.297 C567.325,552.902 569.573,551.45 572.494,550.946" fill="#FEF8EA"/>
    <path d="M65.196,550.727 C75.03,554.717 82.837,561.363 90.095,568.692 C97.262,575.929 103.643,583.832 108.704,592.713 C110.492,595.85 112.992,597.42 116.573,598.077 C138.602,602.121 159.494,609.06 176.769,624.005 C194.116,639.013 203.711,657.607 203.649,681.164 C203.531,725.654 202.059,770.055 196.605,814.234 C192.75,845.472 187.55,876.472 175.605,905.866 C170.882,917.487 165.122,928.534 155.37,936.929 C151.373,940.369 146.806,942.627 141.604,943.549 C133.291,945.021 128.996,942.77 125.894,934.925 C121.594,924.053 120.88,912.559 120.757,901.062 C120.436,871.153 124.457,841.633 129.276,812.212 C136.782,766.392 146.905,721.13 158.586,676.205 C160.507,668.815 158.195,665.889 150.927,663.334 C107.659,648.126 77.608,619.939 65.328,574.784 C63.042,566.376 63.424,559.183 65.196,550.727" fill="#FEF8EA"/>
    <path d="M934.631,420.487 C935.154,412.183 938.126,403.546 942.085,395.264 C948.88,381.047 957.584,368.108 968.895,357.04 C980.008,346.165 989.07,346.864 998.271,359.551 C1007.43,372.173 1012.23,386.675 1015.56,401.712 C1016.96,408.04 1017.89,414.441 1017.77,420.987 C1017.63,428.915 1022.27,432.106 1030.09,430.152 C1051.08,424.906 1071.94,425.806 1092.6,431.97 C1095.95,432.967 1099.12,434.45 1102.06,436.404 C1109.92,441.627 1111.7,447.407 1107.89,456.12 C1104.53,463.81 1099.67,470.586 1094.41,477.037 C1084.12,489.64 1072.58,500.825 1057.69,507.992 C1043.22,514.956 1033.23,511.033 1027.85,495.882 C1023.37,483.257 1022.47,469.898 1020.57,456.755 C1019.85,451.827 1019.18,446.87 1018.03,442.034 C1016.51,435.603 1011.53,433.406 1005.41,435.993 C998.844,438.77 991.71,438.219 984.855,439.305 C974.488,440.947 964.029,441.749 953.524,440.892 C941.081,439.877 934.456,433.013 934.631,420.487" fill="#FF7164"/>
    <path d="M91.897,429.796 C99.458,418.555 109.139,409.835 121.454,403.926 C144.096,393.061 171.297,399.929 185.552,420.644 C195.066,434.47 199.628,449.939 198.579,466.71 C198.03,475.484 194.482,483.487 188.937,490.362 C179.471,502.097 168.315,511.762 153.171,515.051 C140.235,517.861 127.799,515.07 115.959,509.474 C111.6,507.414 107.358,505.16 103.383,502.377 C102.393,501.684 101.51,499.76 99.653,500.869 C93.457,477.572 91.21,453.844 91.897,429.796" fill="#FFD5BA"/>
    <path d="M519.831,574.992 C518.637,573.358 516.766,573.271 515.024,572.721 C492.85,565.723 475.523,553.586 470.384,529.213 C466.993,513.132 472.254,498.865 481.35,486.021 C491.709,471.393 505.501,461.319 523.616,458.471 C538.872,456.072 552.523,459.855 564.402,470.008 C575.253,479.283 580.451,491.7 584.543,504.818 C582.867,513.838 579.258,522.228 576.109,530.768 C575.683,531.921 575.026,532.61 573.679,532.911 C555.541,536.97 542.661,548.912 530.606,561.974 C526.792,566.108 523.411,570.641 519.831,574.992" fill="#FFD5BA"/>
    <path d="M795.301,851.994 C796.749,852.299 797.655,852.599 798.577,852.668 C803.856,853.059 807.307,854.66 808.658,860.87 C810.537,869.501 817.086,875.189 824.898,878.732 C850.865,890.511 869.548,886.158 885.557,863.718 C886.712,862.1 887.809,860.441 888.931,858.804 C916.563,877.146 918.397,877.458 945.069,868.198 C944.43,885.327 945.739,902.137 950.945,918.737 C897.609,918.737 844.714,918.737 791.486,918.737 C798.071,896.769 799.051,874.727 795.301,851.994" fill="#FEFEFE"/>
    <path d="M1046.56,792.279 C1046.91,808.736 1041.23,821.781 1028.04,831.257 C1021.61,835.876 1014.42,838.901 1006.77,840.766 C1002.97,841.691 999.717,843.106 998.685,847.202 C997.686,851.164 999.357,854.111 1002.3,856.882 C1009.84,863.989 1013.28,873.366 1015.92,883.081 C1019.99,898.065 1021.59,913.194 1017.61,928.443 C1013.93,942.563 1005.8,946.642 992.14,941.743 C981.799,938.033 974.321,930.989 970.299,921.065 C958.805,892.701 957.624,864.185 970.945,835.942 C973.582,830.352 977.213,825.365 981.964,821.27 C986.271,817.558 991.206,815.194 996.879,815.098 C1002.32,815.006 1005.13,812.349 1006.25,807.306 C1007.11,803.426 1009.27,800.288 1012.23,797.73 C1017.14,793.488 1021.42,793.424 1026.54,797.381 C1030.95,800.784 1034.33,800.799 1038.68,797.33 C1040.99,795.486 1043.15,793.431 1046.56,792.279" fill="#FEF8EA"/>
    <path d="M780.686,877.591 C780.538,892.338 778.813,906.796 772.565,920.366 C767.105,932.224 758.367,940.241 745.344,943.151 C736.48,945.131 730.508,942.32 726.742,933.96 C722.444,924.42 722.101,914.259 722.813,904.083 C723.654,892.069 726.242,880.412 731.404,869.435 C733.685,864.586 736.343,859.961 740.494,856.458 C743.489,853.929 744.594,850.88 743.69,847.142 C742.794,843.438 739.966,841.833 736.55,840.993 C725.361,838.241 715.252,833.514 707.21,824.994 C699.381,816.701 696.292,806.558 695.677,795.449 C695.534,792.864 696.326,791.876 698.763,793.612 C699.438,794.094 700.255,794.421 700.827,794.997 C706.37,800.591 711.787,801.534 718.182,795.833 C721.589,792.796 725.803,794.478 729.201,796.998 C733.083,799.877 735.443,803.794 736.539,808.532 C737.47,812.557 740.018,814.871 744.266,814.989 C753.487,815.243 760.37,819.776 765.696,826.908 C776.919,841.938 780.941,859.136 780.686,877.591" fill="#FEF8EA"/>
    <path d="M258.557,82.088 C238.329,86.599 219.015,93.559 200.969,103.825 C171.456,120.614 143.86,140.126 120.127,164.47 C86.89,198.561 63.273,238.924 45.812,283.001 C31.837,318.279 22.429,354.722 18.537,392.527 C18.385,394.004 18.006,395.458 17.733,396.922 C17.354,397.348 17.076,397.314 16.915,396.743 C15.659,357.901 19.701,319.744 30.676,282.325 C45.286,232.511 72.29,190.243 108.061,153.188 C130.885,129.545 156.172,109.183 186.34,95.52 C209.288,85.127 233.207,79.693 258.557,82.088" fill="#FEFEFE"/>
    <path d="M330.561,726.318 C294.188,726.588 258.772,720.54 224.154,709.471 C221.039,708.475 219.944,707.016 220.157,703.826 C220.423,699.846 220.593,695.791 220.13,691.848 C219.495,686.446 222.016,683.273 225.645,679.548 C235.435,669.499 245.683,665.762 259.127,672.382 C264.656,675.104 271.834,674.523 277.29,677.331 C282.966,680.253 283.458,687.811 286.816,693.035 C305.654,722.335 338.613,723.979 364.794,710.828 C374.913,705.745 383.272,698.385 389.949,689.246 C391.776,686.745 393.793,685.559 396.868,685.28 C402.659,684.754 408.421,683.869 414.175,682.999 C416.345,682.67 417.181,683.273 417.189,685.532 C417.222,694.52 417.328,703.509 417.518,712.495 C417.583,715.594 415.084,715.263 413.39,715.713 C392.119,721.368 370.52,725.118 348.522,726.27 C342.551,726.583 336.549,726.318 330.561,726.318" fill="#FEFEFE"/>
    <path d="M1044.54,688.875 C1040.87,694.759 1037.4,700.682 1031.88,705.263 C1015.6,718.78 992.213,716.519 979.226,699.773 C974.43,693.588 970.183,687.09 968.541,679.179 C965.943,666.665 970.923,656.524 978.019,646.875 C987.31,634.242 1000.11,631.516 1014.72,633.351 C1026.54,634.834 1036.18,639.775 1043.08,649.771 C1044.93,652.446 1044.14,649.037 1044.76,648.76 C1046.24,662.141 1046.26,675.513 1044.54,688.875" fill="#FFCEB4"/>
    <path d="M680.888,707.727 C684.739,695.517 690.862,684.901 702.391,678.398 C715.505,671 728.599,671.604 740.887,680.094 C750.055,686.428 756.051,695.617 759.392,706.101 C763.321,718.431 758.413,729.059 751.728,739.314 C739.088,758.703 713.607,757.257 698.108,749.517 C696.939,748.933 696.041,747.795 694.576,747.826 C688.142,735.098 684.019,721.582 680.888,707.727" fill="#FFCEB4"/>
    <path d="M599.634,661.863 C590.37,670.203 580.85,678.193 570.107,684.635 C555.144,693.608 538.976,697.644 521.581,696.921 C515.872,697.099 510.345,696.089 504.868,694.554 C501.668,693.657 500.057,691.946 499.274,688.495 C496.932,678.184 496.913,678.608 506.54,673.993 C544.447,655.822 572.327,628.219 586.185,587.796 C590.362,575.612 590.502,562.984 589.547,550.293 C589.468,549.243 588.327,547.497 589.743,547.229 C591.948,546.812 594.395,546.978 596.601,547.491 C598.194,547.861 597.11,549.443 596.902,550.481 C593.365,568.171 591.999,586.037 592.669,604.053 C593.35,622.352 595.685,640.458 599.281,658.408 C599.507,659.538 599.522,660.71 599.634,661.863" fill="#DBA76F"/>
    <path d="M718.703,412.954 C697.357,433.353 677.28,454.95 660.207,479.051 C639.798,507.861 628.211,540.201 624.549,575.332 C621.035,609.048 625.957,642.051 633.124,674.852 C634.366,680.539 635.688,686.208 636.974,691.884 C632.654,697.34 630.812,703.812 629.453,710.575 C623.017,688.519 617.459,666.398 613.665,643.865 C610.4,624.48 608.674,604.985 609.507,585.301 C611.303,542.842 626.406,505.416 652.228,472.028 C669.03,450.302 688.31,431.156 711.079,415.662 C713.128,414.268 715.293,413.043 717.405,411.74 C718.493,411.444 718.855,411.925 718.703,412.954" fill="#FEFEFE"/>
    <path d="M533.69,909.836 C533.677,837.832 518.028,769.659 502.659,701.195 C504.48,701.158 504.869,702.595 505.441,703.53 C525.907,736.963 541.662,772.321 548.189,811.238 C553.444,842.572 551.419,873.213 537.587,902.397 C536.607,904.464 535.467,906.456 533.69,909.836" fill="#FEFC9F"/>
    <path d="M662.033,263.875 C661.905,266.033 660.051,266.352 658.593,266.986 C638.723,275.618 618.197,281.373 596.3,280.862 C592.654,280.777 589.022,280.095 585.375,280.001 C582.544,279.928 581.798,277.795 580.87,275.962 C579.227,272.715 575.172,269.479 576.138,266.496 C577.065,263.628 582.294,264.479 585.574,263.488 C610.697,255.899 623.952,237.971 629.674,213.351 C630.184,211.156 629.939,208.719 631.572,206.845 C643.624,224.84 653.796,243.841 662.033,263.875" fill="#FEFEFE"/>
    <path d="M647.712,755.985 C656.985,761.684 666.995,762.849 677.408,760.366 C680.276,759.682 681.777,760.14 682.768,762.855 C683.277,764.247 683.991,765.605 684.828,766.83 C687.969,771.427 690.287,774.925 683.744,779.718 C678.184,783.791 678.415,791.557 679.023,798.288 C679.515,803.73 680.092,809.225 682.032,814.395 C683.057,817.127 682.351,817.987 679.531,817.831 C658.76,816.677 638.206,814.365 618.611,806.756 C618.588,803.025 621.815,801.53 623.91,799.375 C633.187,789.833 640.715,779.257 644.66,766.367 C645.716,762.916 645.369,759.052 647.712,755.985" fill="#DCAE53"/>
    <path d="M72.524,382.725 C78.91,382.663 79.029,383.004 78.148,389.542 C75.595,408.5 74.142,427.537 75.221,446.674 C75.461,450.945 74.197,451.396 70.471,450.053 C59.013,445.924 53.156,437.61 52.079,425.822 C51.031,414.363 52.9,403.265 57.81,392.836 C61.073,385.904 65.978,382.789 72.524,382.725" fill="#FEF8EA"/>
    <path d="M647.712,755.985 C646.576,772.146 638.558,785.015 628.143,796.703 C625.073,800.149 621.794,803.41 618.61,806.756 C607.417,803.605 607.391,803.582 614.856,795.102 C628.106,780.051 635.192,762.739 634.327,742.471 C634.31,742.08 634.545,741.678 634.9,740.478 C638.209,747.033 642.207,752.171 647.712,755.985" fill="#FEFEFE"/>
    <path d="M300.253,681.668 C323.168,685.055 345.596,687.255 368.354,686.833 C353.741,708.866 312.9,706.11 300.253,681.668" fill="#FEF8EA"/>
    <path d="M667.683,744.79 C661.124,744.662 655.459,742.513 652.114,736.605 C647.115,727.779 645.544,718.244 647.459,708.225 C648.083,704.956 649.699,702.368 652.906,700.981 C659.215,698.253 661.73,699.474 663.17,706.094 C665.536,716.975 668.401,727.712 672.237,738.177 C674.477,744.289 674.115,744.796 667.683,744.79" fill="#FEF8EA"/>
    <path d="M598.003,530.693 C595.263,531.097 594.21,530.396 595.469,526.909 C602.367,507.82 607.222,488.18 610.29,468.126 C610.787,464.876 612.067,464.357 614.807,464.876 C618.108,465.502 621.278,466.374 623.914,468.593 C628.567,472.51 629.014,475.251 625.83,480.308 C616.513,495.106 608.838,510.69 603.247,527.283 C602.077,530.755 601.989,530.726 598.003,530.693" fill="#FEF8EA"/>
    <path d="M1082.07,665.85 C1082.09,679.604 1076.91,686.263 1065.63,688.547 C1062.64,689.153 1061.44,688.77 1061.81,685.252 C1063.05,673.475 1062.81,661.68 1061.9,649.871 C1061.72,647.596 1059.66,644.316 1063.22,642.862 C1067.17,641.25 1071.28,640.651 1074.95,643.848 C1077.43,646.011 1078.65,648.912 1079.67,651.918 C1081.35,656.846 1082,661.942 1082.07,665.85" fill="#FEF8EA"/>
    <path d="M869.506,856.438 C858.864,871.545 834.747,871.763 825.099,856.643 C840.039,857.249 854.509,857.344 869.506,856.438" fill="#FF7063"/>
    <path d="M949.499,838.47 C944.857,855.249 922.107,862.048 907.374,850.996 C921.757,847.432 935.538,843.941 949.499,838.47" fill="#FF7063"/>
    <path d="M219.127,662.848 C218.562,661.646 218.18,660.437 218.465,659.037 C220.105,658.767 221.848,659.399 222.058,660.609 C222.248,661.706 220.571,662.598 219.127,662.848" fill="#E9E3DC"/>
    <path d="M718.703,412.954 C718.27,412.549 717.838,412.145 717.405,411.74 C718.814,410.088 720.787,409.299 722.633,408.315 C722.426,410.795 720.32,411.668 718.703,412.954" fill="#F1EBE3"/>
    <path d="M1155.5,724.285 C1153.66,723.063 1150.78,723.022 1150.57,719.948 C1152.24,720.941 1153.91,721.934 1155.58,722.927 C1155.99,723.403 1155.96,723.856 1155.5,724.285" fill="#EEE7DE"/>
    <path d="M16.915,396.743 C17.203,396.732 17.476,396.792 17.733,396.922 C17.525,399.177 18.228,401.507 17.171,403.69 C16.672,401.389 16.541,399.076 16.915,396.743" fill="#BBA892"/>
    <path d="M1143.04,715.838 C1141.3,715.05 1139.56,714.267 1139.56,711.927 C1141.2,712.802 1142.82,713.699 1143.04,715.838" fill="#EADECC"/>
    <path d="M1147.05,717.723 C1144.81,718.921 1144.19,716.974 1143.21,715.739 C1145.24,714.935 1145.93,716.756 1147.05,717.723" fill="#E8DDCC"/>
    <path d="M1155.5,724.285 C1155.53,723.832 1155.55,723.38 1155.58,722.927 C1156.09,723.776 1159.86,723.291 1156.7,725.654 C1156.3,725.197 1155.9,724.741 1155.5,724.285" fill="#E5DCD1"/>
    <path d="M236.419,423.716 C227.685,423.647 220.004,416.249 218.689,406.967 C217.014,395.145 220.369,384.584 227.52,375.238 C229.132,373.131 229.561,371.519 228.562,369.07 C226.155,363.173 226.42,357.049 227.652,350.926 C228.455,346.932 231.074,345.221 234.914,345.972 C238.655,346.703 240.049,349.554 239.473,353.101 C238.936,356.415 238.606,359.646 239.247,362.984 C239.679,365.237 240.5,366.449 243.097,366.467 C247.206,366.496 250.254,368.792 252.726,371.927 C263.317,385.36 261.499,406.859 248.787,418.184 C245.079,421.487 240.8,423.507 236.419,423.716" fill="#6E4100"/>
    <path d="M488.796,441.62 C488.674,450.217 487.018,457.779 482.509,464.468 C478.195,470.868 472.121,474.388 464.341,473.666 C456.613,472.949 452.389,467.471 449.872,460.813 C444.471,446.523 448.97,434.395 458.993,423.902 C461.089,421.708 461.907,420.12 460.868,417.088 C459.531,413.189 458.741,409.046 458.855,404.847 C458.955,401.175 460.751,398.778 464.557,398.622 C468.311,398.469 470.38,400.536 470.808,404.274 C471.052,406.414 471.356,408.548 471.654,410.682 C472.13,414.095 473.383,416.185 477.191,417.679 C485.493,420.936 487.343,428.873 488.552,436.78 C488.826,438.577 488.743,440.429 488.796,441.62" fill="#6E4100"/>
    <path d="M330.94,575.385 C316.033,574.621 302.02,569.336 294.535,553.056 C293.37,550.522 292.63,547.731 292.108,544.979 C291.43,541.411 292.833,538.621 296.557,537.834 C300.106,537.085 303.12,538.414 303.705,542.223 C306.304,559.121 324.397,565.18 337.834,562.793 C345.594,561.414 351.04,556.706 354.303,549.644 C356.119,545.713 358.641,543.737 362.909,545.431 C366.391,546.813 367.199,550.348 365.327,554.753 C360.015,567.248 347.181,575.351 330.94,575.385" fill="#6E4100"/>
    <path d="M275.716,251.896 C275.693,255.913 273.859,257.883 270.772,258.493 C267.831,259.075 265.676,257.698 264.334,255.014 C260.092,246.523 253.927,243.974 244.995,247.161 C242.345,248.106 239.947,249.368 238.701,252.349 C237.253,255.813 234.245,256.819 230.876,255.384 C227.373,253.891 226.777,250.83 227.777,247.443 C228.647,244.495 230.537,242.178 232.844,240.201 C241.653,232.655 257.872,231.853 267.35,238.532 C272.209,241.956 275.059,246.62 275.716,251.896" fill="#6E4100"/>
    <path d="M340.901,415.657 C349.48,415.821 350.483,421.293 352.727,425.576 C354.691,429.325 355.588,433.026 352.587,436.686 C349.315,440.678 343.318,440.937 339.994,436.897 C337.253,433.565 335.425,429.561 334.575,425.335 C333.465,419.816 337.387,415.56 340.901,415.657" fill="#6E4100"/>
    <path d="M617.317,404.034 C613.068,403.288 608.581,400.635 603.979,398.397 C579.708,386.593 557.83,371.166 537.735,353.285 C491.155,311.836 454.213,263.042 427.225,206.779 C426.147,204.531 425.13,202.252 424.128,199.968 C421.644,194.304 422.829,189.719 427.31,187.552 C432.168,185.202 436.743,187.106 439.31,192.903 C446.532,209.217 454.828,224.964 464.374,240.02 C496.811,291.18 536.076,335.921 586.983,369.61 C597.831,376.789 609.37,382.717 621.298,387.912 C626.11,390.007 627.897,393.772 626.651,398.393 C625.7,401.921 622.302,404.222 617.317,404.034" fill="#6E4100"/>
    <path d="M758.751,645.492 C758.608,642.41 759.224,638.248 760.844,634.433 C761.946,631.839 761.478,630.182 759.804,628.208 C757.604,625.616 756.262,622.495 759.536,619.926 C762.676,617.461 765.466,618.834 767.429,621.985 C768.365,623.488 769.404,623.757 771.157,623.27 C774.413,622.367 777.344,623.558 780.065,625.387 C791.454,633.042 795.445,650.436 788.509,662.27 C782.306,672.853 769.599,673.134 762.976,662.778 C759.841,657.875 758.803,652.366 758.751,645.492" fill="#6E4100"/>
    <path d="M919.577,630.397 C919.729,629.413 919.832,627.388 920.376,625.49 C921.927,620.08 923.402,614.891 919.868,609.467 C918.457,607.301 919.393,604.409 922.169,603.189 C924.773,602.044 927.24,602.666 928.507,605.354 C929.448,607.349 930.174,608.012 932.555,607.162 C936.487,605.759 940.072,607.23 943.176,609.844 C951.59,616.93 955.654,633.629 951.474,643.892 C946.8,655.367 934.393,657.536 926.222,648.223 C922.032,643.448 919.652,637.864 919.577,630.397" fill="#6E4100"/>
    <path d="M863.432,758.995 C849.044,758.279 833.716,751.604 823.774,735.067 C822.416,732.808 821.789,730.463 823.303,728.03 C824.49,726.123 826.328,725.529 828.475,725.766 C830.682,726.01 831.883,727.46 832.981,729.266 C842.039,744.172 855.974,749.676 872.513,747.865 C888.626,746.101 898.664,735.976 904.017,720.971 C904.128,720.658 904.323,720.366 904.384,720.045 C905.12,716.181 906.867,713.315 911.365,714.129 C915.016,714.789 916.132,718.067 914.719,722.985 C908.479,744.7 889.715,759.05 863.432,758.995" fill="#6E4100"/>
    <path d="M755.196,536.736 C757.419,536.706 760.694,537.786 763.634,539.796 C766.283,541.607 767.332,544.057 765.789,547.096 C764.225,550.175 761.529,550.613 758.57,549.605 C750.51,546.861 746.11,549.044 743.503,557.501 C742.392,561.104 740.284,562.962 736.558,562.124 C732.918,561.306 732.182,558.511 732.618,555.183 C733.866,545.639 744.148,536.681 755.196,536.736" fill="#6E4100"/>
    <path d="M849.461,640.136 C849.638,637.177 851.481,635.184 854.997,635.045 C858.405,634.909 863.783,641.135 863.714,645.104 C863.653,648.659 861.602,650.587 858.167,650.798 C854.813,651.005 849.502,644.686 849.461,640.136" fill="#6F4400"/>
    <path d="M993.806,539.784 C963.115,539.098 935.056,530.337 908.171,517.209 C885.801,506.285 864.83,493.128 845.533,477.372 C840.057,472.901 839.194,468.365 842.68,464.163 C846.199,459.921 850.646,459.959 856.245,464.398 C884.123,486.499 914.362,504.362 948.409,515.214 C969.733,522.011 991.45,525.131 1013.81,520.982 C1019.7,519.889 1023.8,522.484 1024.63,527.108 C1025.61,532.608 1022.84,536.487 1016.63,537.567 C1008.93,538.906 1001.15,539.738 993.806,539.784" fill="#6E4100"/>
  </g>
</svg>
