<?xml version="1.0" encoding="UTF-8" standalone="no"?>
<!-- Created with Inkscape (http://www.inkscape.org/) -->
<svg xmlns="http://www.w3.org/2000/svg" viewBox="0 0 209 297" version="1.1" id="svg888">
  
  <g id="layer1">
    <g id="g1682" transform="translate(-4.2998415,-8.3040201)">
      <path id="path1634" d="m 81.128689,265.62362 c -2.880077,-0.48438 -6.287697,-2.58727 -8.068036,-4.9789 l -0.339118,-0.45555 -0.834089,0.0151 c -0.45875,0.008 -1.443691,-0.0258 -2.188757,-0.0758 -10.909448,-0.73232 -18.647275,-3.13999 -21.895155,-6.81282 -2.129069,-2.40763 -4.223622,-6.95339 -5.533588,-12.00942 -1.318426,-5.0887 -1.947801,-9.86431 -2.049887,-15.5543 -0.08896,-4.9586 0.228853,-8.86635 1.03317,-12.70345 1.69288,-8.07611 6.657152,-22.07139 13.687595,-38.58808 0.699804,-1.64405 1.258607,-3.00005 1.241784,-3.01332 -0.01682,-0.0133 -0.430636,-0.1689 -0.919586,-0.34584 -2.653325,-0.96022 -4.625146,-1.98052 -8.085667,-4.18381 -4.189364,-2.66735 -7.673197,-5.34412 -10.772801,-8.27719 l -1.205468,-1.1407 -0.657199,0.48594 c -1.398968,1.03442 -3.117501,2.94844 -4.977996,5.54425 -0.52915,0.73829 -1.14588,1.48562 -1.4798,1.79318 -0.58366,0.53761 -1.1412,0.89511 -1.24072,0.79558 -0.11079,-0.11078 0.21488,-1.40385 0.49866,-1.97987 0.16021,-0.32521 0.63053,-1.06374 1.04516,-1.64116 1.744114,-2.42896 3.485887,-4.40322 4.742677,-5.37575 0.355469,-0.27506 0.725468,-0.56147 0.822219,-0.63647 0.173153,-0.13422 0.16535,-0.14817 -0.497363,-0.889 -2.220683,-2.48246 -4.104073,-5.21332 -5.457413,-7.91305 l -0.50245,-1.00233 -0.31875,0.13312 c -1.70775,0.7132 -4.48107,2.41056 -7.04146,4.30959 -0.58665,0.43512 -1.4356,0.98459 -1.88656,1.22105 -0.85398,0.44779 -1.75534,0.7986 -1.83841,0.71552 -0.14835,-0.14835 0.85484,-1.49221 1.70829,-2.28841 1.55958,-1.45496 6.21806,-4.45824 8.20877,-5.29214 0.26697,-0.11183 0.48555,-0.24143 0.48575,-0.288 1.6e-4,-0.0466 -0.17296,-0.59901 -0.38479,-1.22766 -0.95658,-2.83891 -1.41409,-5.58103 -1.55255,-9.30529 -0.29781,-8.01078 1.28262,-18.18838 4.34019,-27.94978 l 0.11988,-0.38273 -0.37687,-0.46394 c -1.29088,-1.58908 -2.35164,-3.58345 -2.94217,-5.53166 -0.8892,-2.93356 -1.9115,-9.802072 -2.35205,-15.802599 -0.15115,-2.058886 -0.15195,-15.772245 -0.001,-17.907 0.416,-5.884511 0.92378,-8.607045 2.10526,-11.287559 1.8162,-4.120555 4.415787,-6.488117 7.977741,-7.265697 1.004948,-0.219381 3.026412,-0.19786 4.160264,0.04429 2.9084,0.621135 6.803739,2.389577 11.641667,5.285191 1.829674,1.095103 5.539721,3.573259 6.463228,4.317165 2.602938,2.096728 6.540228,6.11377 9.99531,10.197773 0.482595,0.570442 0.886044,1.037167 0.896553,1.037167 0.01051,0 0.547547,-0.251098 1.193419,-0.557997 0.645873,-0.306897 1.613478,-0.741931 2.150235,-0.966741 5.863334,-2.455743 15.123431,-4.067114 25.852733,-4.498694 6.011499,-0.241809 15.284589,0.573491 21.816859,1.918162 4.44735,0.915491 7.48382,1.893203 10.89999,3.50969 l 1.29033,0.610565 0.23367,-0.279774 c 2.25458,-2.699414 4.51827,-5.178254 6.8328,-7.482188 2.93547,-2.922043 4.46119,-4.130957 8.26295,-6.547215 2.59993,-1.652421 4.86777,-2.947545 7.06655,-4.035571 5.22322,-2.584626 8.29831,-3.22138 11.45594,-2.372169 2.90014,0.779959 5.20086,2.870579 6.89602,6.266288 1.67029,3.34591 2.35503,7.376874 2.60316,15.324667 0.14517,4.649908 0.0647,11.993662 -0.16796,15.324667 -0.32435,4.644037 -1.26131,11.102284 -2.08816,14.393333 -0.54529,2.170326 -1.67525,4.450466 -3.05756,6.169836 l -0.46777,0.58183 0.23377,0.77283 c 3.73859,12.35949 5.10703,24.16277 3.7657,32.4805 -0.27117,1.68159 -0.88886,3.98036 -1.49156,5.55098 -0.0285,0.0744 0.26101,0.25445 0.87453,0.54378 2.11227,0.99608 5.89281,3.43728 7.72628,4.98905 0.75042,0.63513 1.93735,2.25368 1.77311,2.41791 -0.0793,0.0793 -1.34005,-0.43482 -2.02883,-0.82733 -0.35093,-0.19998 -1.20602,-0.77823 -1.9002,-1.28499 -1.51784,-1.10804 -3.30321,-2.28554 -4.56351,-3.00976 -0.89471,-0.51416 -2.50016,-1.30486 -2.54084,-1.25141 -0.0109,0.0144 -0.30431,0.57855 -0.65197,1.25377 -1.41345,2.74519 -2.88835,4.83829 -5.71852,8.11542 l -0.27036,0.31306 0.65136,0.48264 c 0.73154,0.54204 1.76182,1.52607 2.61874,2.50119 1.26622,1.44085 3.06297,3.8776 3.48215,4.72245 0.41349,0.83341 0.66691,2.06857 0.4244,2.06857 -0.14481,0 -1.09294,-0.7044 -1.44228,-1.07153 -0.17033,-0.17901 -0.66185,-0.82077 -1.09224,-1.42613 -1.83114,-2.57554 -3.6252,-4.57099 -5.09837,-5.67066 l -0.65829,-0.4914 -0.99271,0.96658 c -2.60849,2.53985 -5.7201,5.00171 -9.45936,7.48413 -3.89373,2.58496 -6.15948,3.83515 -8.80534,4.85864 -0.74506,0.2882 -1.43947,0.55886 -1.54312,0.60145 l -0.18847,0.0774 0.30317,0.70124 c 4.57392,10.5798 8.59199,20.90758 11.29124,29.02224 2.61,7.84633 3.8106,12.83184 4.19,17.399 0.0271,0.32597 0.0699,0.7927 0.0951,1.03717 l 0.0459,0.4445 h 0.38142 c 1.14951,0 4.01376,-0.60855 5.29349,-1.12467 0.68614,-0.27672 2.63454,-1.39139 4.17658,-2.3894 3.43332,-2.22204 5.35748,-4.50872 5.9687,-7.09323 0.33644,-1.42265 0.36881,-2.10588 0.37794,-7.97703 0.01,-6.39158 -0.007,-6.17335 0.68588,-8.84675 1.46424,-5.64964 3.20021,-8.78898 5.63668,-10.19345 0.56979,-0.32845 1.63024,-0.69684 2.62987,-0.91359 0.76098,-0.16502 1.12608,-0.18949 2.86193,-0.19183 2.2612,-0.003 3.28587,0.13826 4.89118,0.67455 3.44263,1.15011 5.4206,3.08065 7.60239,7.42011 1.61659,3.21531 3.11288,7.68683 3.66427,10.95029 0.82652,4.89193 0.0874,9.70798 -2.14801,13.99571 -1.92008,3.68295 -4.53001,6.47549 -8.70933,9.31871 -3.70916,2.52336 -9.21642,5.2617 -13.36405,6.64492 -3.91373,1.30522 -11.22418,2.64384 -19.97757,3.65813 -0.54993,0.0637 -0.48601,-0.0591 -0.70279,1.34986 -1.22669,7.97283 -4.07347,15.27377 -7.14824,18.33267 -3.52447,3.50627 -10.83857,5.69457 -21.50814,6.43501 -0.71973,0.0499 -1.69942,0.0841 -2.1771,0.0759 l -0.86848,-0.0149 -0.31309,0.41267 c -0.66422,0.87548 -0.94385,1.18173 -1.61746,1.77145 -2.29393,2.00825 -5.34167,3.34021 -7.64292,3.34021 -1.22713,0 -2.91096,-0.43579 -4.21269,-1.09028 -1.26582,-0.63645 -2.20785,-1.33586 -3.34495,-2.48347 l -1.08063,-1.09063 -1.7557,0.18745 c -1.55066,0.16556 -2.2204,0.18765 -5.735027,0.18919 -3.90265,0.002 -4.430733,-0.0226 -7.281333,-0.3355 l -0.423333,-0.0465 -0.550334,0.64352 c -2.368631,2.76973 -6.244344,4.42999 -9.186333,3.93519 z" fill="#000000" stroke-width="0.08466667"/>

      <path id="path1632" d="m 83.829374,263.47168 c 2.638586,-0.69803 5.075828,-2.65439 6.105785,-4.90108 0.525293,-1.14584 1.121865,-3.20508 1.90394,-6.57199 0.206713,-0.88994 0.597679,-1.96546 1.014924,-2.79202 0.325781,-0.64537 0.675615,-1.18731 0.766428,-1.18731 0.03607,0 0.130946,0.36298 0.21082,0.80664 0.221471,1.23002 0.142681,2.94437 -0.206138,4.48503 -0.497442,2.19707 -1.325151,5.07177 -1.62455,5.64218 -0.08374,0.15954 -0.02228,0.17186 1.701106,0.34098 1.627175,0.15968 8.508731,0.12892 10.067071,-0.045 0.67067,-0.0749 1.23057,-0.14726 1.24423,-0.16092 0.0137,-0.0136 -0.16408,-0.57102 -0.39496,-1.2386 -0.48727,-1.40892 -1.27066,-4.48857 -1.48039,-5.81974 -0.10873,-0.69005 -0.13171,-1.1744 -0.0919,-1.93625 0.057,-1.09048 0.21302,-2.00194 0.35026,-2.04634 0.11704,-0.0379 0.82744,1.22557 1.17642,2.09223 0.31655,0.78612 0.43687,1.2176 1.07171,3.84357 0.4845,2.0041 1.10845,3.97309 1.51753,4.78888 0.56706,1.1308 1.56878,2.27017 2.77037,3.15105 1.26269,0.92566 3.03754,1.62645 4.37537,1.72758 2.70134,0.20422 6.75012,-2.09785 8.33886,-4.74132 0.71855,-1.19557 1.30892,-3.96618 1.66197,-7.79965 0.11845,-1.28615 0.54468,-2.91669 1.06082,-4.05819 l 0.18879,-0.41751 0.11373,0.21705 c 0.44245,0.84444 0.76802,2.89649 0.67503,4.2546 -0.15301,2.23482 -0.69132,5.57529 -1.11808,6.93837 -0.0484,0.15477 -0.005,0.15874 1.12354,0.10247 1.53494,-0.0765 3.71799,-0.26996 5.40728,-0.47914 7.59399,-0.94032 12.98056,-2.79693 15.58659,-5.37231 1.90435,-1.88196 3.81559,-5.81292 5.19666,-10.68828 1.11344,-3.93059 2.00378,-9.42365 2.05918,-12.7044 l 0.0176,-1.04068 -1.43934,-0.57953 c -6.42455,-2.58679 -10.77194,-4.82094 -12.22279,-6.28138 -0.98443,-0.99094 -1.01312,-1.9347 -0.0869,-2.85844 0.95967,-0.9571 3.10523,-2.04855 6.61746,-3.36632 1.1553,-0.43346 5.36998,-1.83717 5.79808,-1.93108 0.16565,-0.0363 0.27516,-0.11241 0.27516,-0.19114 0,-0.24103 -0.765,-3.18058 -1.32857,-5.10509 -0.30682,-1.04775 -0.61575,-2.10439 -0.68652,-2.34809 -0.0717,-0.24696 -0.18825,-0.46127 -0.26328,-0.48416 -0.074,-0.0226 -0.93473,-0.17747 -1.91263,-0.34418 -6.07805,-1.03618 -10.57716,-2.15708 -12.40879,-3.09152 -0.47572,-0.24269 -0.91054,-0.65075 -1.10997,-1.04165 -0.60921,-1.19416 0.70679,-2.60118 4.5441,-4.85837 1.29355,-0.7609 4.19868,-2.29846 5.48442,-2.90269 0.545,-0.25612 0.99128,-0.51169 0.99174,-0.56792 0.002,-0.24799 -3.3925,-8.83279 -5.18217,-13.10575 -2.09622,-5.0049 -2.81738,-6.64551 -2.92135,-6.64592 -0.0568,0 -0.6855,0.16851 -1.397,0.37496 -6.31974,1.83375 -15.13505,3.4925 -24.74631,4.65643 -1.35043,0.16353 -2.76013,0.33546 -3.13267,0.38206 -0.37253,0.0466 -2.77283,0.12621 -5.334,0.17691 -2.56116,0.0507 -4.732863,0.10827 -4.825996,0.12793 -0.284675,0.0601 -10.957888,-0.21463 -11.726334,-0.30184 -11.347841,-1.28788 -20.620377,-2.94935 -27.711511,-4.9654 -0.977139,-0.2778 -1.706285,-0.4449 -1.747885,-0.40055 -0.0663,0.0707 -1.547911,3.50926 -2.82359,6.55309 -1.528251,3.64647 -5.224348,12.9579 -5.224348,13.16148 0,0.0183 1.114425,0.60181 2.4765,1.29665 4.845835,2.47198 7.487344,4.18394 8.319101,5.39161 0.370496,0.53794 0.482277,1.21299 0.269117,1.6252 -0.170197,0.32912 -0.716332,0.8207 -1.167492,1.05087 -1.8363,0.93681 -6.31035,2.04989 -12.394893,3.08367 -0.9779,0.16615 -1.823641,0.31838 -1.879425,0.33829 -0.232707,0.083 -2.428633,7.83006 -2.265663,7.99303 0.02508,0.0251 1.215635,0.43265 2.645677,0.90572 5.495222,1.81787 8.731729,3.27239 9.96871,4.48008 0.788043,0.76937 0.930952,1.48795 0.459437,2.31014 -0.872327,1.5211 -5.556437,4.02164 -13.445688,7.17777 l -0.791619,0.31669 0.05711,0.94023 c 0.402188,6.62189 1.890065,13.37128 3.996156,18.12757 0.987486,2.23008 2.272904,4.31757 3.261236,5.29614 1.744037,1.72683 4.622648,3.09863 8.669948,4.13168 2.960964,0.75577 6.09263,1.25965 9.771126,1.57218 2.028567,0.17235 3.725333,0.25473 3.725333,0.18087 0,-0.0337 -0.07377,-0.35342 -0.163939,-0.71043 -0.245913,-0.97368 -0.48457,-2.28305 -0.6985,-3.83227 -0.27271,-1.97488 -0.272548,-4.55338 3.38e-4,-5.53751 0.231801,-0.83593 0.441959,-1.397 0.523269,-1.397 0.102617,0 0.734995,1.68812 0.919783,2.45534 0.185953,0.77206 0.273428,1.37381 0.480005,3.302 0.293391,2.7385 0.783172,5.03992 1.288322,6.05366 1.123152,2.25397 4.122193,4.41347 7.057572,5.08193 0.65242,0.14856 1.918426,0.10754 2.649494,-0.0859 z" fill="#718484" stroke-width="0.08466667"/>
      <path id="path1630" d="m 159.02202,231.67456 c 3.17292,-0.39837 7.87521,-1.11193 7.97319,-1.2099 0.0189,-0.0189 -0.27622,-0.39162 -0.65573,-0.82834 -0.77128,-0.88755 -1.93685,-2.3607 -2.35534,-2.97691 -0.68024,-1.00159 -1.18566,-2.36287 -1.5788,-4.25227 -0.12592,-0.6051 -0.24091,-1.11363 -0.25554,-1.13005 -0.0146,-0.0164 -0.4386,0.068 -0.94218,0.18752 -1.06771,0.25349 -2.62828,0.52946 -3.41326,0.6036 -0.30269,0.0286 -0.66058,0.0733 -0.79532,0.0993 l -0.24497,0.0473 0.0558,1.15477 c 0.0652,1.34856 -0.0629,5.11923 -0.24193,7.12377 -0.0686,0.76835 -0.12558,1.42318 -0.12654,1.45518 -9.3e-4,0.032 0.12209,0.0409 0.27343,0.0197 0.15134,-0.0212 1.18956,-0.15329 2.30716,-0.2936 z" fill="#718484" fill-opacity="1" stroke-width="0.08466667"/>
      <path id="path1628" d="m 169.69019,229.99257 c 1.18697,-0.22721 3.28261,-0.69477 3.39937,-0.75844 0.0594,-0.0324 -0.28642,-0.46734 -0.88361,-1.11152 -2.85539,-3.08007 -3.44315,-4.20437 -4.37641,-8.37145 -0.16035,-0.716 -0.30264,-1.31194 -0.3162,-1.32433 -0.0136,-0.0124 -0.87068,0.47817 -1.90472,1.09013 -1.54482,0.91425 -1.88075,1.14639 -1.88384,1.30181 -0.007,0.35965 0.43198,2.26947 0.72549,3.15518 0.16202,0.48895 0.44292,1.13665 0.62422,1.43933 0.41895,0.69947 1.48933,2.07032 2.7216,3.48556 0.52943,0.60805 0.9753,1.13935 0.99082,1.18066 0.0155,0.0413 0.0346,0.0751 0.0425,0.0751 0.008,0 0.39521,-0.0729 0.86078,-0.16204 z" fill="#ffd9d5" fill-opacity="1" stroke-width="0.08466667"/>
      <path id="path1626" d="m 175.71335,228.53608 c 0.3191,-0.0986 1.19163,-0.41804 1.93896,-0.70996 6.32952,-2.47244 12.02172,-5.85004 15.39847,-9.13706 0.47045,-0.45793 0.8054,-0.84697 0.762,-0.88503 -0.0426,-0.0374 -0.73314,-0.11205 -1.53457,-0.16599 -4.45354,-0.29971 -8.49162,-0.89705 -10.22348,-1.51233 -1.77076,-0.6291 -4.07542,-2.05504 -6.77086,-4.18932 -0.6183,-0.48958 -1.1094,-0.82312 -1.12833,-0.76633 -0.0184,0.0553 -0.2005,0.44364 -0.40459,0.86297 -0.87136,1.79028 -2.20598,3.34623 -4.20909,4.90706 -0.31433,0.24492 -0.5715,0.4732 -0.5715,0.50728 0,0.15494 0.45433,2.33394 0.64111,3.07487 0.31681,1.25669 0.76213,2.55397 1.09231,3.18204 0.16365,0.3113 0.62737,0.97999 1.03049,1.48598 0.70984,0.89095 3.20073,3.52502 3.33342,3.52502 0.036,0 0.32657,-0.0806 0.64566,-0.1792 z" fill="#718484" fill-opacity="1" stroke-width="0.08466667"/>
      <path id="path1624" d="m 43.383826,225.74538 c 3.570826,-1.4246 7.768861,-3.39054 9.698122,-4.54162 1.077451,-0.64286 2.096407,-1.45716 2.096407,-1.67535 0,-0.22962 -0.908997,-0.89791 -1.942695,-1.42826 -1.91239,-0.98117 -4.094809,-1.842 -7.497638,-2.95736 -2.552533,-0.83665 -2.585083,-0.84632 -2.645525,-0.78588 -0.191358,0.19137 -0.638899,4.02646 -0.781401,6.69604 -0.08807,1.64988 -0.119114,5.12233 -0.04579,5.12233 0.02252,0 0.525856,-0.19345 1.118524,-0.4299 z" fill="#ffd9d5" fill-opacity="1" stroke-width="0.08466667"/>
      <path id="path1622" d="m 154.72319,223.19078 c -0.0485,-3.18155 -0.2356,-5.61433 -0.59422,-7.72583 l -0.18695,-1.10067 -0.254,0.0276 c -0.1397,0.0152 -1.4351,0.42168 -2.87866,0.90333 -3.62926,1.21091 -6.15553,2.24592 -7.73882,3.17061 -0.67964,0.39693 -1.27818,0.89433 -1.27818,1.06219 0,0.0585 0.17372,0.26648 0.38603,0.4622 1.28012,1.17997 5.08137,3.13555 10.14348,5.21839 1.07735,0.44328 2.03502,0.83954 2.12815,0.88059 0.0931,0.041 0.20293,0.0772 0.244,0.0803 0.0426,0.003 0.0551,-1.27629 0.0292,-2.97877 z" fill="#ffd9d5" fill-opacity="1" stroke-width="0.08466667"/>
      <path id="path1620" d="m 195.27869,216.07878 c 0.54902,-0.59472 1.9219,-3.03554 2.42496,-4.31128 0.26209,-0.66465 0.27354,-0.77435 0.0745,-0.71412 -0.25439,0.077 -3.04571,0.45842 -4.5085,0.61608 -0.97628,0.10522 -2.08545,0.15121 -3.683,0.1527 -2.07117,0.002 -2.3775,-0.0166 -3.25967,-0.19669 -2.20581,-0.4504 -6.05734,-1.91475 -10.68916,-4.06401 -0.62125,-0.28827 -0.74111,-0.32047 -0.74249,-0.19947 -9.3e-4,0.0794 -0.0582,0.56339 -0.12731,1.07562 l -0.12566,0.93134 0.23314,0.19876 c 1.98174,1.6895 4.63693,3.57508 6.20215,4.40447 1.68594,0.89334 3.69247,1.33934 8.21267,1.82542 0.9577,0.10299 2.15631,0.19782 5.24933,0.41531 0.20955,0.0147 0.42199,0.0334 0.47208,0.0416 0.0501,0.008 0.1702,-0.0709 0.26692,-0.17571 z" fill="#ffd9d5" fill-opacity="1" stroke-width="0.08466667"/>
      <path id="path1618" d="m 192.67702,210.12076 c 2.47258,-0.21104 5.73721,-0.70926 5.8507,-0.89288 0.0831,-0.13442 0.39041,-1.65805 0.51804,-2.56827 0.16108,-1.14866 0.13447,-4.02529 -0.0482,-5.207 -0.21858,-1.41437 -0.818,-4.04523 -0.98219,-4.31089 -0.0402,-0.065 -0.36183,0.0722 -0.98452,0.42005 -1.17513,0.65637 -4.01252,2.0873 -5.04446,2.54397 -2.09602,0.92755 -3.93051,1.49857 -5.40541,1.68254 -1.92241,0.23979 -5.9049,0.1876 -9.652,-0.12649 -0.81491,-0.0683 -1.59596,-0.13379 -1.73566,-0.14552 l -0.254,-0.0213 0.0306,1.98966 c 0.0168,1.09432 0.0549,2.0132 0.0847,2.04195 0.0966,0.0933 3.40165,1.60721 4.88011,2.23533 2.73757,1.16305 5.25195,2.03981 6.68866,2.3323 1.24203,0.25288 3.29654,0.26189 6.05367,0.0266 z" fill="#718484" fill-opacity="1" stroke-width="0.08466667"/>
      <path id="path1616" d="m 47.389022,202.80524 c 4.64637,-0.80945 8.253033,-1.6194 10.380303,-2.33113 0.966605,-0.3234 1.896364,-0.75273 1.896364,-0.87567 0,-0.0406 -0.246574,-0.3044 -0.547943,-0.58632 -0.601733,-0.56289 -2.21547,-1.66217 -3.600724,-2.45282 -2.403666,-1.37192 -5.901913,-3.12832 -6.003228,-3.0141 -0.07314,0.0824 -0.22914,0.49797 -1.125049,2.99675 -0.740825,2.06623 -2.055471,5.89162 -2.131339,6.20183 -0.06887,0.28159 -0.116948,0.27897 1.131616,0.0615 z" fill="#ffd9d5" fill-opacity="1" stroke-width="0.08466667"/>
      <path id="path1614" d="m 150.0941,200.79645 c -0.82415,-2.39823 -1.44157,-4.15073 -2.13243,-6.05282 -0.4072,-1.12112 -0.47054,-1.24261 -0.62313,-1.19511 -0.30069,0.0936 -3.6518,1.79095 -4.9362,2.50021 -1.62775,0.89886 -2.84441,1.65815 -3.78498,2.36209 -0.92121,0.68945 -1.26708,1.03897 -1.20031,1.21296 0.18177,0.4737 3.71094,1.54071 7.88897,2.38514 1.89927,0.38386 5.00352,0.94373 5.30865,0.95742 l 0.22865,0.0103 z" fill="#ffd9d5" fill-opacity="1" stroke-width="0.08466667"/>
      <path id="path1612" d="m 186.00055,200.26366 c 1.62793,-0.16392 2.98995,-0.57132 5.27947,-1.57915 1.48667,-0.65444 3.28304,-1.56212 5.12234,-2.5883 0.58208,-0.32475 1.06971,-0.60046 1.08361,-0.6127 0.11035,-0.0971 -1.86576,-4.88089 -2.14511,-5.19298 -0.014,-0.0156 -0.60955,0.33105 -1.32347,0.77039 -2.09521,1.28938 -3.65144,2.15967 -5.27803,2.95165 -1.66942,0.81284 -2.84134,1.23698 -4.1616,1.50619 -1.7686,0.36062 -5.14192,0.70134 -8.12751,0.82091 l -1.45244,0.0582 -0.0504,0.25196 c -0.0277,0.13859 -0.0504,0.91516 -0.0504,1.72571 0,1.10338 0.0266,1.48278 0.10583,1.50969 0.1436,0.0488 2.97116,0.2901 4.3815,0.37394 1.7162,0.10204 5.62117,0.1047 6.6162,0.004 z" fill="#ffd9d5" fill-opacity="1" stroke-width="0.08466667"/>
      <path id="path1610" d="m 177.43702,194.71998 c 3.85271,-0.18854 6.95236,-0.64026 8.72067,-1.27089 0.86594,-0.30882 3.08409,-1.40318 4.57376,-2.25653 1.71659,-0.98335 3.80824,-2.29589 3.80824,-2.38971 0,-0.15642 -1.26508,-1.96815 -1.73598,-2.4861 -1.2074,-1.32805 -2.85849,-2.20515 -5.07969,-2.69847 -1.18549,-0.26328 -3.52956,-0.36369 -4.71946,-0.20215 -1.00633,0.13661 -2.08223,0.44842 -2.72846,0.79076 -1.5665,0.82983 -2.96803,3.10624 -4.05377,6.58424 -0.42613,1.36505 -1.07375,3.90036 -1.01897,3.98901 0.0253,0.0409 0.3191,0.0548 0.65296,0.0309 0.33387,-0.0239 1.04519,-0.0649 1.5807,-0.091 z" fill="#718484" fill-opacity="1" stroke-width="0.08466667"/>
      <path id="path1608" d="m 105.63969,175.67317 c 0.25612,-0.0197 1.16435,-0.0565 2.0183,-0.0819 3.54313,-0.10539 13.20611,-1.47779 20.02515,-2.8441 6.62224,-1.32688 11.90273,-2.82778 15.46388,-4.3954 2.99746,-1.31947 8.33029,-4.75404 12.29083,-7.91581 1.37774,-1.09987 3.37097,-2.85271 4.11999,-3.6231 l 0.45116,-0.46401 -0.74749,-0.46693 c -0.81785,-0.51089 -2.74214,-1.64082 -4.00715,-2.35299 -0.96799,-0.54494 -1.53403,-0.95572 -1.99693,-1.44919 -0.41615,-0.44364 -0.71241,-0.83059 -0.71241,-0.93052 0,-0.21856 1.60154,0.0603 2.37948,0.41429 0.72196,0.32853 3.67502,2.03185 5.41367,3.1226 0.3979,0.24963 0.76325,0.45387 0.81187,0.45387 0.13992,0 1.53,-1.589 2.66641,-3.048 1.55407,-1.99521 3.79114,-5.71464 3.57006,-5.93571 -0.28136,-0.28137 -5.86559,-0.3091 -8.66279,-0.043 -0.72288,0.0688 -1.79842,0.17196 -2.39012,0.22933 -0.82949,0.0804 -1.25848,0.0819 -1.87367,0.006 -0.93657,-0.11509 -1.66091,-0.27179 -1.66091,-0.3593 0,-0.10382 0.85281,-0.55034 1.48916,-0.77971 0.97532,-0.35155 1.6202,-0.44255 5.58051,-0.78748 0.37253,-0.0324 1.71616,-0.0822 2.98584,-0.11051 l 2.30851,-0.0515 -0.95181,-0.80433 c -1.30936,-1.1065 -3.52612,-3.27998 -4.23127,-4.14867 -0.74238,-0.91454 -1.08494,-1.60807 -1.08494,-2.19647 0,-1.15095 0.97336,-1.78449 3.5907,-2.3371 1.25534,-0.26506 3.78588,-0.58847 5.59564,-0.71515 0.74506,-0.0522 1.51659,-0.11406 1.7145,-0.13757 l 0.35983,-0.0428 v -1.07822 c 0,-2.02833 -0.30716,-6.84224 -0.47078,-7.37807 -0.0213,-0.0699 -0.4861,-0.31443 -1.03283,-0.5435 -3.14903,-1.31943 -7.77801,-3.55965 -9.44491,-4.57092 -2.03733,-1.236 -2.59526,-1.90503 -2.34226,-2.80866 0.13963,-0.49872 0.6611,-0.95938 1.4642,-1.29347 1.61564,-0.67212 4.64376,-1.38248 8.33553,-1.95541 0.52467,-0.0814 0.97455,-0.16866 0.99974,-0.19385 0.11802,-0.11801 -1.41532,-5.61473 -2.23801,-8.02286 -2.17111,-6.354881 -4.48815,-11.104876 -7.12428,-14.604758 -1.17305,-1.557396 -1.92742,-2.42038 -3.54115,-4.051039 -4.47563,-4.522546 -10.16356,-8.539716 -18.30258,-12.92643 -1.62505,-0.875851 -6.64539,-3.386577 -8.636,-4.318951 -1.26311,-0.591621 -2.86102,-1.267255 -2.99712,-1.267255 -0.0221,0 -0.5093,0.653237 -1.08269,1.451637 -2.01674,2.808142 -4.15922,5.343088 -5.43177,6.426758 -1.6155,1.375703 -2.67759,1.516747 -3.57682,0.474996 -1.05175,-1.21844 -2.30288,-5.353998 -3.20314,-10.587845 -0.0712,-0.414032 -0.1417,-0.765 -0.15662,-0.779928 -0.10694,-0.106932 -4.81067,-0.568905 -4.89513,-0.48077 -0.059,0.06158 -5.43694,7.885145 -6.44121,9.37039 -0.24851,0.367531 -0.580099,0.815206 -0.736859,0.994833 -0.267911,0.306991 -0.313783,0.326596 -0.764329,0.326596 -0.271974,0 -0.551544,-0.0508 -0.646311,-0.117434 -0.09186,-0.06459 -0.757555,-0.979491 -1.479339,-2.033119 -0.721783,-1.053627 -2.342269,-3.410608 -3.601085,-5.237733 l -2.288744,-3.322047 -0.632251,0.02778 c -0.97638,0.04291 -4.157284,0.414516 -4.228895,0.494042 -0.03509,0.03896 -0.16546,0.642341 -0.289721,1.340841 -0.124261,0.6985 -0.399991,2.05105 -0.612734,3.005667 -1.050893,4.715548 -2.024996,7.010846 -3.202292,7.545623 -0.903373,0.410349 -1.796621,-7.8e-5 -3.422835,-1.572711 -1.398541,-1.352463 -3.206342,-3.54981 -5.088174,-6.184579 -0.432371,-0.605366 -0.800959,-1.117464 -0.819084,-1.137995 -0.157102,-0.17796 -7.331556,3.255956 -11.749358,5.623607 -11.134246,5.967223 -18.616556,12.026927 -22.94941,18.586055 -2.967739,4.492601 -5.82093,11.555709 -7.877108,19.499859 -0.39059,1.50906 -0.3905,1.57764 0.002,1.58099 0.0931,7.7e-4 0.83608,0.1147 1.650996,0.25311 4.655444,0.79073 7.451383,1.57978 8.354186,2.35767 0.305487,0.26322 0.535163,0.71596 0.535498,1.05557 10e-4,1.05319 -1.221527,1.97109 -5.41835,4.06808 -2.248758,1.12362 -5.41781,2.58078 -6.96692,3.20346 -0.32694,0.13141 -0.5022,0.25326 -0.52684,0.36626 -0.0867,0.39756 -0.30714,3.37793 -0.37339,5.04778 -0.0771,1.94369 -0.0681,3.25883 0.0229,3.34989 0.0311,0.0311 0.54191,0.0873 1.13519,0.1249 4.835849,0.30665 8.335669,1.01131 9.453755,1.90345 0.40853,0.32598 0.672377,0.95297 0.595296,1.41464 -0.144304,0.86431 -0.973718,2.02071 -2.620318,3.65334 -0.883206,0.87572 -2.403644,2.2576 -3.324299,3.02136 -0.150739,0.12506 -0.274071,0.24305 -0.274071,0.26221 0,0.0192 1.038225,0.0584 2.307167,0.0873 2.991212,0.068 6.162437,0.32271 7.515565,0.60358 0.652907,0.13552 1.766251,0.555 2.242268,0.84484 l 0.338667,0.20619 -0.254,0.0977 c -0.1397,0.0537 -0.69929,0.15525 -1.243533,0.22558 -0.949055,0.12264 -1.089323,0.11881 -3.429,-0.0938 -3.140953,-0.28547 -5.789699,-0.39008 -7.604134,-0.30032 -1.532134,0.0758 -2.136153,0.1469 -2.205843,0.25966 -0.0973,0.15746 1.207162,2.46282 2.34339,4.14137 1.235503,1.82521 3.666279,4.80143 3.936351,4.81962 0.05201,0.003 0.644122,-0.33234 1.315804,-0.74633 1.77557,-1.09435 4.618436,-2.71084 5.108965,-2.90501 0.74431,-0.29463 2.159,-0.51094 2.159,-0.33012 0,0.1627 -0.700257,1.00103 -1.142169,1.36739 -0.255564,0.21187 -1.1223,0.76102 -1.92608,1.22034 -1.580701,0.90328 -4.21276,2.47427 -4.324213,2.58097 -0.122559,0.11733 2.717803,2.69099 4.725462,4.28175 2.847607,2.25629 7.225132,5.1888 10.075333,6.74949 5.533059,3.02975 16.571091,5.72031 31.326667,7.63597 4.257688,0.55276 4.958588,0.60758 8.805334,0.68873 1.5367,0.0324 2.81305,0.0782 2.836333,0.10175 0.04761,0.0481 10.112522,-0.0497 10.837332,-0.10533 z" fill="#718484" fill-opacity="1" stroke-width="0.08466667"/>
      <path id="path1606" d="m 92.643356,147.71992 c -2.119132,-0.43028 -3.003317,-1.12331 -3.586874,-2.81143 -0.467888,-1.35352 -0.522194,-2.02413 -0.207103,-2.55754 0.194686,-0.32957 0.335051,-0.3667 0.649689,-0.17186 0.361858,0.2241 0.519255,0.5201 0.869599,1.63538 0.489297,1.55764 0.694258,1.80524 1.809022,2.18542 0.417364,0.14234 0.757597,0.18931 1.408142,0.19437 0.823807,0.006 0.882523,-0.006 1.481667,-0.30339 0.668045,-0.33204 1.688109,-1.03032 2.444191,-1.67317 0.865615,-0.73596 1.073531,-0.74789 1.845073,-0.10581 1.436698,1.19564 2.635368,1.91395 3.437978,2.06025 0.61248,0.11164 1.57961,-0.002 2.30326,-0.26942 0.86881,-0.32168 1.21318,-0.84229 1.678,-2.53676 0.21947,-0.80003 0.81977,-1.48879 1.13157,-1.29832 0.24281,0.14833 0.44118,0.64199 0.44132,1.09822 0,0.52036 -0.32429,1.64304 -0.70775,2.44909 -0.6492,1.36459 -1.93419,2.04379 -4.04105,2.13597 -1.51412,0.0662 -2.29703,-0.23104 -4.129849,-1.56817 -0.842933,-0.61496 -0.981058,-0.6886 -1.111801,-0.59267 -2.597539,1.90583 -3.21702,2.18975 -4.741418,2.17304 -0.442383,-0.005 -0.880533,-0.0243 -0.973666,-0.0432 z" fill="#000000" stroke-width="0.08466667"/>
      
      <g class="eye">
        <ellipse class="eyeball" fill-rule="evenodd" clip-rule="evenodd" cx="70" cy="128" rx="20" ry="18" fill="#c3f7d9"/>
        <ellipse class="pupil" fill-rule="evenodd" clip-rule="evenodd" cx="70" cy="128" rx="6" ry="8" fill="#000000"/>
        <ellipse class="glare" fill-rule="evenodd" clip-rule="evenodd" fill="#ffffff" cx="70" cy="128" rx="2" ry="2"/>
      </g>
      <g class="eye">
        <ellipse class="eyeball" fill-rule="evenodd" clip-rule="evenodd" fill="#c3f7d9" cx="130" cy="128" rx="20"  ry="18"/>
        <ellipse class="pupil" fill-rule="evenodd" clip-rule="evenodd" cx="130" cy="128" rx="6" ry="8" fill="#000000"/>
        <ellipse class="glare" fill-rule="evenodd" clip-rule="evenodd" fill="#ffffff" cx="130" cy="128" rx="2" ry="2"/>
      </g>
  
      <path id="path1592" d="m 97.451652,137.86689 c -0.960459,-0.47995 -2.439856,-2.19111 -3.402838,-3.93594 -0.718905,-1.30259 -0.92627,-2.21486 -0.652441,-2.87023 0.374489,-0.89628 2.03829,-1.33647 5.088983,-1.34637 2.340974,-0.008 3.505174,0.22602 4.132744,0.82931 0.3037,0.29195 0.39692,0.54265 0.39692,1.06742 0,1.65685 -2.44442,5.51979 -3.974784,6.28139 -0.595038,0.29612 -0.956454,0.2903 -1.588584,-0.0256 z" fill="#000000" stroke-width="0.08466667"/>
      <path id="path1590" d="m 59.534646,99.967254 c -0.143724,-0.15508 -0.207624,-0.321842 -0.207624,-0.541838 0,-0.278156 0.05959,-0.372273 0.47765,-0.754352 1.174102,-1.073063 3.388371,-2.548951 4.491737,-2.993899 1.236756,-0.49874 2.776164,-0.67456 5.998547,-0.685109 2.098602,-0.0069 2.399739,0.0089 2.593648,0.135891 0.460716,0.301704 0.453251,1.053573 -0.01285,1.294605 -0.200356,0.103608 -0.626115,0.128065 -2.229399,0.128065 -2.315307,0 -3.96319,0.115317 -4.966289,0.347536 -1.143369,0.264691 -2.548666,1.093524 -4.490372,2.648386 -0.683871,0.547621 -0.85249,0.644131 -1.125877,0.644411 -0.239218,2.6e-4 -0.3747,-0.057 -0.529166,-0.223696 z" fill="#000000" stroke-width="0.08466667"/>
      <path id="path1588" d="m 136.34906,99.958454 c -2.9332,-2.24795 -3.92221,-2.840073 -5.18237,-3.102702 -0.93586,-0.195043 -2.7008,-0.305135 -4.89177,-0.305135 h -2.02159 l -0.24749,-0.247487 c -0.32224,-0.322236 -0.33702,-0.740557 -0.0368,-1.040796 0.17402,-0.174023 0.32364,-0.220255 0.85943,-0.265546 0.91592,-0.07742 2.28789,-0.06619 4.00986,0.03281 2.58187,0.148453 3.60622,0.398521 5.0149,1.224256 1.54173,0.903729 3.6378,2.519988 3.77372,2.909881 0.28055,0.804785 -0.57255,1.335305 -1.27792,0.794711 z" fill="#000000" stroke-width="0.08466667"/>
      <path id="path1586" d="m 30.080136,143.66165 c 3.29725,-2.69435 6.065366,-5.46052 6.411977,-6.40747 0.117065,-0.31982 -1.162211,-0.75921 -3.242425,-1.11368 -1.181691,-0.20136 -3.810427,-0.49035 -5.517727,-0.60659 l -0.81872,-0.0557 0.0337,0.32706 c 0.0186,0.17988 0.0743,0.78426 0.12383,1.34306 0.15562,1.75541 0.53239,3.77243 0.98053,5.24933 0.30584,1.00794 0.75365,2.159 0.83993,2.159 0.0515,0 0.58648,-0.40273 1.188855,-0.89496 z" fill="#ffd9d5" fill-opacity="1" stroke-width="0.08466667"/>
      <path id="path1584" d="m 168.25087,144.40845 c 0.49143,-1.20103 1.03279,-3.15186 1.34511,-4.84717 0.20557,-1.11587 0.51876,-3.96384 0.44411,-4.03848 -0.0576,-0.0576 -3.32155,0.21623 -4.79507,0.40231 -2.75042,0.34732 -4.74133,0.87814 -4.74133,1.26412 0,0.45549 1.47126,2.12493 3.47133,3.93893 1.43452,1.30106 3.98986,3.42823 4.11844,3.42836 0.0532,5e-5 0.12406,-0.0666 0.15741,-0.14807 z" fill="#ffd9d5" fill-opacity="1" stroke-width="0.08466667"/>
      <path id="path1582" d="m 29.482021,122.64751 c 5.034587,-2.20684 9.145073,-4.43285 8.904467,-4.82215 -0.08642,-0.13984 -1.40642,-0.5962 -2.639133,-0.91242 -1.798426,-0.46135 -6.247914,-1.27203 -6.658984,-1.21326 -0.18022,0.0258 -0.21645,0.12937 -0.46882,1.34027 -0.32519,1.5603 -0.92543,5.05401 -1.00841,5.86946 l -0.0588,0.57779 0.2875,-0.12295 c 0.15813,-0.0676 0.8971,-0.39015 1.64217,-0.71674 z" fill="#ffd9d5" fill-opacity="1" stroke-width="0.08466667"/>
      <path id="path1580" d="m 169.43938,123.19945 c -0.0257,-0.15134 -0.14536,-0.92287 -0.26601,-1.7145 -0.20231,-1.32752 -0.72296,-4.15754 -0.97741,-5.31284 -0.12977,-0.58917 0.0146,-0.5725 -2.04867,-0.23645 -2.60568,0.42438 -4.97302,0.93691 -6.22221,1.34709 -0.6969,0.22884 -1.36872,0.52904 -1.36872,0.61162 0,0.32854 3.4683,2.25039 7.02733,3.89397 1.3268,0.61273 3.75232,1.67645 3.835,1.68186 0.037,0.002 0.0463,-0.11941 0.0207,-0.27075 z" fill="#ffd9d5" fill-opacity="1" stroke-width="0.08466667"/>
      <path id="path1578" d="m 30.201688,103.82013 c 0,-0.14212 1.241589,-3.32645 1.794403,-4.602146 1.462436,-3.374769 3.23494,-6.577248 4.786852,-8.648661 l 0.45324,-0.604962 -0.337114,-1.265355 c -1.099922,-4.128545 -1.949825,-8.172442 -2.246792,-10.690389 -0.337956,-2.865491 -0.394578,-9.871156 -0.09512,-11.768666 0.619096,-3.922857 2.016978,-5.360673 5.194704,-5.343106 1.949758,0.01078 3.956716,0.543014 6.678776,1.771178 1.730453,0.780762 2.954179,1.632059 5.107048,3.552763 1.32452,1.181685 4.57405,4.454 6.008113,6.050241 l 0.885779,0.985952 1.273221,-0.675452 c 0.700271,-0.371498 2.180371,-1.13247 3.28911,-1.691049 l 2.015889,-1.015598 -0.698774,-0.822631 c -2.571124,-3.026857 -6.360074,-6.988124 -8.370671,-8.751362 -1.467099,-1.286605 -3.125082,-2.467155 -6.037088,-4.298648 -4.900559,-3.082185 -9.11343,-5.108956 -12.166245,-5.853062 -1.136923,-0.277119 -2.85146,-0.281992 -3.937001,-0.01119 -2.413491,0.602075 -4.275247,2.25809 -5.760267,5.123703 -1.47356,2.843472 -2.08149,6.122991 -2.41177,13.010261 -0.19427,4.051132 -0.095,14.145078 0.17278,17.568333 0.39836,5.092596 1.4707,11.829373 2.26413,14.223996 0.57849,1.74594 2.136794,4.48496 2.136794,3.75585 z" fill="#718484" fill-opacity="1" stroke-width="0.08466667"/>
      <path id="path1576" d="m 167.65405,102.85411 c 1.11844,-1.85693 1.64848,-3.561979 2.32799,-7.488826 0.84639,-4.891226 1.3042,-9.325144 1.44263,-13.971904 0.0906,-3.040876 0.041,-11.4089 -0.0816,-13.756429 -0.27894,-5.343796 -0.80257,-8.594641 -1.77472,-11.017944 -1.3164,-3.281442 -3.29775,-5.462889 -5.71814,-6.295627 -1.2808,-0.440658 -2.92567,-0.519661 -4.40489,-0.211566 -3.25094,0.677119 -8.65135,3.386995 -14.478,7.264912 -2.73825,1.822446 -4.45329,3.270979 -7.16556,6.052083 -1.98855,2.039022 -5.74692,6.246482 -5.7457,6.432261 0,0.03404 0.65428,0.385731 1.45346,0.781547 0.79918,0.395817 2.25632,1.146406 3.23809,1.667977 l 1.78505,0.948309 0.37405,-0.397976 c 4.00663,-4.262809 5.12213,-5.381765 7.20361,-7.2259 2.13223,-1.889093 4.29673,-3.102536 7.19667,-4.034543 1.30827,-0.420462 2.23847,-0.611294 3.3407,-0.685348 1.98279,-0.133214 3.29169,0.266815 4.27501,1.30653 1.41188,1.492855 1.93044,4.814905 1.71096,10.960951 -0.14946,4.185131 -0.28599,5.475827 -0.91351,8.636 -0.33371,1.680519 -1.1594,5.194443 -1.63313,6.950153 l -0.31779,1.177801 0.68374,0.952523 c 2.01464,2.806625 4.26593,7.268241 5.9401,11.772156 0.57468,1.54604 0.45073,1.52806 1.26095,0.18286 z" fill="#718484" fill-opacity="1" stroke-width="0.08466667"/>
      <path id="path1574" d="m 42.944022,83.85357 c 3.115098,-2.798529 7.403959,-5.879374 11.790603,-8.469619 0.985772,-0.582084 1.793683,-1.08861 1.795355,-1.125614 0.01014,-0.22425 -5.234616,-5.555878 -6.789576,-6.902039 -1.623268,-1.405296 -2.389944,-1.933789 -3.833049,-2.642236 -2.454388,-1.204907 -4.753133,-1.831039 -6.469298,-1.762109 -1.506102,0.06049 -2.130144,0.574147 -2.539168,2.090008 -0.406524,1.506601 -0.4675,2.285135 -0.468493,5.981656 -0.0015,5.596737 0.204569,7.553634 1.319556,12.530667 0.303867,1.35639 0.945665,3.965608 1.047667,4.259273 0.02264,0.06519 0.655872,-0.522137 1.542077,-1.430284 0.827012,-0.84749 1.998959,-1.985856 2.604326,-2.529703 z" fill="#e7bab9" fill-opacity="1" stroke-width="0.08466667"/>
      <path id="path1572" d="m 158.75653,85.649784 c 1.17153,-4.798074 1.59853,-7.402699 1.73848,-10.6045 0.16307,-3.730502 0.17442,-4.44526 0.0968,-6.096 -0.17131,-3.643541 -0.64143,-5.196651 -1.73912,-5.745401 -0.56974,-0.284821 -1.85904,-0.347927 -2.96333,-0.145043 -2.17845,0.400233 -4.70716,1.411118 -6.43867,2.573949 -1.81585,1.219473 -4.77549,4.008369 -8.19089,7.718356 -0.62449,0.678351 -0.7932,0.910141 -0.71406,0.981083 0.057,0.05109 0.92277,0.58062 1.92395,1.176736 3.09144,1.840683 6.04114,3.84239 8.55133,5.803075 2.2896,1.788374 4.88871,4.154457 6.30767,5.742145 0.4191,0.468934 0.78739,0.854368 0.81842,0.85652 0.031,0.0022 0.30527,-1.015262 0.60942,-2.26092 z" fill="#e7bab9" fill-opacity="1" stroke-width="0.08466667"/>
      <path id="path1570" d="m 81.154533,76.082451 c 0.500572,-0.709049 1.088098,-2.301604 1.663277,-4.5085 0.340485,-1.306401 1.174136,-5.419965 1.111167,-5.482935 -0.06227,-0.06227 -3.506136,0.530243 -5.074524,0.873068 -2.296466,0.501972 -5.049905,1.252631 -5.049008,1.37649 7.62e-4,0.102693 2.016048,2.809915 3.031512,4.072325 1.668319,2.074029 3.561907,3.902385 4.041615,3.902385 0.06137,0 0.185555,-0.104775 0.275961,-0.232833 z" fill="#ffd9d5" fill-opacity="1" stroke-width="0.08466667"/>
      <path id="path1568" d="m 116.81278,75.934778 c 0.37768,-0.278844 1.77626,-1.666967 2.43168,-2.413494 1.05648,-1.203331 3.92123,-4.983393 3.92123,-5.174096 0,-0.153542 -3.36281,-1.049238 -5.79967,-1.54476 -1.65802,-0.33715 -4.26202,-0.774474 -4.31015,-0.72386 -0.0474,0.04987 0.55956,3.121209 0.91035,4.606383 0.61549,2.605858 1.20719,4.362965 1.75855,5.222188 0.23706,0.369433 0.29582,0.413559 0.48686,0.365612 0.11949,-0.02999 0.39001,-0.182078 0.60115,-0.337973 z" fill="#ffd9d5" fill-opacity="1" stroke-width="0.08466667"/>
      <path id="path1564" d="m 98.951023,73.54106 c 0.573582,-0.854395 4.956407,-7.254186 5.355687,-7.820376 0.19151,-0.271555 0.33165,-0.509504 0.31142,-0.528775 -0.10874,-0.10361 -3.77903,-0.257772 -6.132774,-0.257595 -2.265316,1.7e-4 -6.027818,0.151086 -6.12245,0.245572 -0.01455,0.01452 0.283819,0.478055 0.663033,1.030069 1.124026,1.636232 3.615936,5.263114 4.556066,6.631201 0.481059,0.700037 0.900159,1.271588 0.931333,1.270113 0.03117,-0.0015 0.228135,-0.258069 0.437685,-0.570209 z" fill="#ffd9d5" fill-opacity="1" stroke-width="0.08466667"/>
    </g>
  </g>
</svg>